<svg xmlns="http://www.w3.org/2000/svg" width="15.604" height="11.645" viewBox="0 0 15.604 11.645">
  <path id="bxs-quote-alt-left" d="M6.458,10.689a3.444,3.444,0,0,0-.506.051,2.8,2.8,0,0,1,.2-.529,3.272,3.272,0,0,1,.365-.657,3.872,3.872,0,0,1,.467-.573,5.2,5.2,0,0,1,.538-.47,3.318,3.318,0,0,1,.555-.36,2.934,2.934,0,0,1,.506-.272L9,7.706l.369-.153L8.991,6.046l-.464.112c-.148.037-.33.081-.536.133a4.187,4.187,0,0,0-.686.243,4.831,4.831,0,0,0-.8.362,7.3,7.3,0,0,0-.848.538,6.066,6.066,0,0,0-.817.735,5.468,5.468,0,0,0-.707.9,6.306,6.306,0,0,0-.546,1.01,8.557,8.557,0,0,0-.364,1.039,9.39,9.39,0,0,0-.3,1.9,9.7,9.7,0,0,0,.022,1.359c.011.159.034.313.049.419l.02.131.02,0a3.5,3.5,0,1,0,3.422-4.233Zm8.557,0a3.444,3.444,0,0,0-.506.051,2.8,2.8,0,0,1,.2-.529,3.272,3.272,0,0,1,.365-.657,3.872,3.872,0,0,1,.467-.573,5.2,5.2,0,0,1,.538-.47,3.318,3.318,0,0,1,.555-.36,2.934,2.934,0,0,1,.506-.272l.419-.173.369-.153-.378-1.508-.464.112c-.148.037-.33.081-.536.133a4.187,4.187,0,0,0-.686.243,4.817,4.817,0,0,0-.8.364,7.3,7.3,0,0,0-.848.538,6.1,6.1,0,0,0-.817.734,5.468,5.468,0,0,0-.707.9,6.306,6.306,0,0,0-.546,1.01,8.557,8.557,0,0,0-.364,1.039,9.39,9.39,0,0,0-.3,1.9,9.7,9.7,0,0,0,.022,1.359c.011.159.034.313.049.419l.02.131.02,0a3.5,3.5,0,1,0,3.422-4.234Z" transform="translate(-2.911 -6.046)" fill="rgba(47,118,187,0.23)"/>
</svg>
