<svg xmlns="http://www.w3.org/2000/svg" width="19.176" height="17.258" viewBox="0 0 19.176 17.258">
  <path id="Tracé_4" data-name="Tracé 4" d="M34.09,10.19c.043-.1.079-.195.131-.285a.993.993,0,0,1,.944-.49q1.891,0,3.782,0h.244c0-.078.012-.143.012-.208.005-.393-.008-.787.017-1.179a1.562,1.562,0,0,1,1.473-1.474c.081-.006.162-.01.243-.01,1.829,0,3.657,0,5.486,0a1.65,1.65,0,0,1,1.4.643,1.676,1.676,0,0,1,.324,1.071c0,.38,0,.759,0,1.16h3.986a.993.993,0,0,1,1.128,1.124q0,3.418,0,6.835a1.017,1.017,0,0,1-.551.986.255.255,0,0,0-.085.195c-.005,1.273,0,2.547,0,3.82,0,.15,0,.3,0,.449a.954.954,0,0,1-.937.97c-.062,0-.125,0-.187,0q-7.826,0-15.653-.006a1.48,1.48,0,0,1-.645-.139.914.914,0,0,1-.476-.891c0-1.392,0-2.784,0-4.176a.25.25,0,0,0-.157-.273,1.044,1.044,0,0,1-.484-.634Zm10.863,8.629c.084-.007.145-.009.206-.017l2.556-.354q2.242-.309,4.484-.616c.343-.047.427-.133.427-.483q0-3.408,0-6.815c0-.379-.1-.476-.476-.476H35.209c-.391,0-.481.093-.481.489q0,3.389,0,6.778c0,.05,0,.1,0,.15A.322.322,0,0,0,35,17.8c.061.012.123.02.185.029l6.391.884c.268.037.537.069.825.106,0-.186-.006-.341,0-.5a.94.94,0,0,1,.9-.909c.236-.011.474-.011.711,0a.945.945,0,0,1,.941.962C44.956,18.52,44.953,18.662,44.953,18.819ZM35.366,18.5v.2q0,2,0,4.007c0,.344.1.447.445.447H51.537c.353,0,.452-.1.452-.46q0-1.994,0-3.988V18.5l-7.038.972c0,.3.009.58,0,.86a.943.943,0,0,1-.9.9c-.206.009-.412.005-.618,0A.959.959,0,0,1,42.4,20.211c0-.242,0-.484,0-.736ZM47.5,9.406c0-.478,0-.933,0-1.388a.485.485,0,0,0-.024-.128.954.954,0,0,0-1.018-.706q-2.321,0-4.642,0c-.356,0-.711-.006-1.067.007a.877.877,0,0,0-.868.738c-.048.485-.011.979-.011,1.476h.617V9.213c0-.331,0-.661,0-.992,0-.288.109-.4.4-.4q2.8,0,5.6,0c.284,0,.39.11.393.4,0,.331,0,.661,0,.992v.189Zm-6.367,0H46.22V8.478H41.131Zm3.183,9.927c0-.312,0-.624,0-.936a.315.315,0,0,0-.339-.341c-.2-.006-.4-.006-.6,0a.314.314,0,0,0-.335.344q-.006.926,0,1.852a.32.32,0,0,0,.348.352c.174.005.349,0,.524,0,.285,0,.4-.114.4-.395S44.315,19.623,44.315,19.33Z" transform="translate(-34.09 -6.542)" fill="#2f76bb"/>
</svg>
