<svg xmlns="http://www.w3.org/2000/svg" width="21.676" height="18.173" viewBox="0 0 21.676 18.173">
  <g id="Groupe_414" data-name="Groupe 414" transform="translate(-40.44 -21.808)">
    <path id="Tracé_396" data-name="Tracé 396" d="M40.44,30.042c.05-.2.089-.411.152-.61a3.178,3.178,0,0,1,1.261-1.7l.137-.1c.005,0,.006-.012.009-.019q-.938-1.907.406-3.028a2.353,2.353,0,0,1,3.064.084,7.086,7.086,0,0,1,11.481.135,2.318,2.318,0,0,1,1.949-.735,2.247,2.247,0,0,1,1.329.588,2.223,2.223,0,0,1,.31,2.955c.048.035.1.071.147.106a3.188,3.188,0,0,1,1.423,2.628c.012.345,0,.691,0,1.037,0,.325-.117.441-.45.441-1.3,0-2.61,0-3.915,0a.323.323,0,0,0-.339.206,6.768,6.768,0,0,1-1.452,1.909c-.056.052-.116.1-.182.156.052.062.086.1.123.144.726.75,1.455,1.5,2.177,2.251a.214.214,0,0,0,.3.051.88.88,0,0,1,1.036.169c.474.473.944.951,1.4,1.44a.913.913,0,0,1-.015,1.282,4.036,4.036,0,0,1-.319.309.909.909,0,0,1-1.264-.036c-.466-.462-.922-.933-1.375-1.408a.928.928,0,0,1-.186-1.057.224.224,0,0,0-.022-.194q-1.178-1.23-2.368-2.449c-.014-.014-.034-.022-.01-.007-.57.275-1.1.58-1.659.792a7.023,7.023,0,0,1-8.678-3.347.339.339,0,0,0-.357-.212c-1.213.009-2.426,0-3.639.008a.511.511,0,0,1-.485-.225Zm4.387-1.2A6.335,6.335,0,1,0,51.109,22.5,6.324,6.324,0,0,0,44.827,28.846ZM61.4,31.127c0-.338.025-.656,0-.97a2.426,2.426,0,0,0-1.27-1.954.31.31,0,0,0-.221.006,7.8,7.8,0,0,1-.888.306,4.124,4.124,0,0,1-.8.011,7.768,7.768,0,0,1-.4,2.6Zm-16.882,0a7.427,7.427,0,0,1-.395-2.57,2.368,2.368,0,0,1-1.419-.328.274.274,0,0,0-.34.007,2.728,2.728,0,0,0-1.194,2.891ZM60.26,26.3a1.541,1.541,0,0,0-1.044-1.443,1.637,1.637,0,0,0-1.784.474.218.218,0,0,0-.013.283A6.954,6.954,0,0,1,58.1,27.6a.281.281,0,0,0,.155.186A1.577,1.577,0,0,0,60.26,26.3Zm-17.967.009a1.583,1.583,0,0,0,1.747,1.536c.12-.013.162-.066.182-.183A7.144,7.144,0,0,1,45.01,25.4a.227.227,0,0,0-.034-.208,1.619,1.619,0,0,0-1.728-.305A1.539,1.539,0,0,0,42.293,26.306Zm17.6,13.009c.117-.1.224-.187.322-.282.207-.2.208-.289.011-.491q-.582-.6-1.165-1.2c-.258-.265-.316-.265-.584,0-.03.03-.061.059-.09.09-.155.161-.161.257-.01.415q.639.663,1.285,1.319A1.441,1.441,0,0,0,59.892,39.315Z" transform="translate(0 0)" fill="#2f76bb"/>
    <path id="Tracé_397" data-name="Tracé 397" d="M82.186,35.215a2.743,2.743,0,0,1,.321-3.836,2.772,2.772,0,0,1,3.606.026,2.734,2.734,0,0,1,.3,3.8c.2.141.41.27.6.426a3.852,3.852,0,0,1,1.448,3.023c.007.451,0,.9,0,1.354,0,.3-.121.419-.427.419H80.564c-.307,0-.433-.115-.428-.416a16.359,16.359,0,0,1,.064-1.983,3.724,3.724,0,0,1,1.775-2.679C82.039,35.306,82.1,35.266,82.186,35.215Zm.48,4.5h3.26c0-.214,0-.417,0-.619.006-.258.145-.414.356-.409s.339.163.341.423c0,.2,0,.4,0,.6h1.135c0-.414.025-.817,0-1.215a3.156,3.156,0,0,0-1.761-2.7.32.32,0,0,0-.261-.009,2.761,2.761,0,0,1-2.872,0,.282.282,0,0,0-.225-.009,3.2,3.2,0,0,0-1.176.974,4.2,4.2,0,0,0-.618,2.96h1.126c0-.21,0-.407,0-.6,0-.261.13-.419.341-.424s.35.151.356.409C82.67,39.3,82.666,39.5,82.666,39.719Zm-.414-6.263a2.044,2.044,0,1,0,2.05-2.038A2.043,2.043,0,0,0,82.251,33.456Z" transform="translate(-33.019 -7.418)" fill="#2f76bb"/>
  </g>
</svg>
