<svg xmlns="http://www.w3.org/2000/svg" width="22.794" height="19.52" viewBox="0 0 22.794 19.52">
  <g id="Groupe_413" data-name="Groupe 413" transform="translate(-47.704 -16.628)">
    <path id="Tracé_394" data-name="Tracé 394" d="M64.853,81.757c.673-.345,1.336-.689,2-1.024a1.5,1.5,0,0,1,1.845.34.964.964,0,0,1-.2,1.522q-2.3,1.548-4.6,3.089c-.511.343-1.03.675-1.532,1.032a3.738,3.738,0,0,1-2.771.634c-1.254-.164-2.513-.285-3.77-.422a5.435,5.435,0,0,0-1.522.215c.039.189.075.363.11.536.057.279-.027.412-.308.473q-1.154.25-2.309.5c-.28.06-.412-.023-.471-.3q-.516-2.447-1.03-4.895-.19-.9-.378-1.807c-.054-.259.026-.4.279-.452q1.172-.259,2.347-.509c.279-.059.4.029.464.316s.12.552.176.809a11.12,11.12,0,0,1,1.077-.481,3.974,3.974,0,0,1,3.209.291c.544.287,1.091.571,1.63.866a1.027,1.027,0,0,0,1.039,0c.768-.4,1.542-.792,2.313-1.188A1.786,1.786,0,0,1,64.853,81.757ZM55.49,84.329c.069.013.126.021.182.034.991.236,1.981.478,2.974.709a2.716,2.716,0,0,0,2.053-.294c1.177-.689,2.349-1.387,3.521-2.083a.34.34,0,0,0,.115-.564,1.119,1.119,0,0,0-1.452-.335c-.827.418-1.65.843-2.473,1.268a1.621,1.621,0,0,1-1.613-.022c-.535-.291-1.072-.578-1.614-.856a3.409,3.409,0,0,0-3.682.224.263.263,0,0,0-.129.325c.2.925.391,1.852.586,2.778.07.333.143.666.216,1.006l.3-.062a4.356,4.356,0,0,1,1.394-.166c1.257.138,2.517.255,3.771.422a3.292,3.292,0,0,0,2.447-.564c.925-.652,1.878-1.266,2.818-1.9q1.617-1.085,3.232-2.171a.352.352,0,0,0,.072-.61.861.861,0,0,0-1.038-.182q-.993.5-1.978,1.016a.268.268,0,0,0-.124.175.962.962,0,0,1-.481.738c-1.2.714-2.4,1.433-3.607,2.133a3.161,3.161,0,0,1-2.244.38c-.726-.143-1.444-.333-2.165-.5l-1.224-.29ZM51.9,87.974l1.846-.4-1.307-6.223-1.844.4Z" transform="translate(0.229 -52.518)" fill="#2f76bb"/>
    <path id="Tracé_395" data-name="Tracé 395" d="M58.415,27.745l-.593-.6c.063-.072.116-.137.173-.2l5.169-5.563c.319-.344.476-.344.8,0L66.3,23.9c.071-.071.135-.133.2-.2l4.115-4.428c.308-.331.47-.332.779,0q1.462,1.571,2.921,3.145a1.6,1.6,0,0,1,.143.2c1.265-1.361,3.391-4.474,4.617-5.794H77.632v-.851h.858c.514,0,1.027,0,1.541,0,.32,0,.464.154.465.5,0,.665,0,1.732,0,2.413H79.72V17.431c-.1.1-.162.155-.221.219-1.228,1.32-3.35,4.431-4.578,5.752-.329.354-.479.353-.813-.007l-2.9-3.125c-.062-.067-.127-.132-.2-.21-.072.073-.138.135-.2.2l-4.1,4.409c-.321.345-.478.346-.8,0l-2.317-2.5Z" transform="translate(-10.05 0.701)" fill="#2f76bb" stroke="#303030" stroke-width="0.1"/>
  </g>
</svg>
