<svg id="Groupe_30" data-name="Groupe 30" xmlns="http://www.w3.org/2000/svg" width="10.503" height="12.004" viewBox="0 0 10.503 12.004">
  <g id="Groupe_29" data-name="Groupe 29">
    <g id="Groupe_28" data-name="Groupe 28">
      <circle id="Ellipse_1" data-name="Ellipse 1" cx="0.703" cy="0.703" r="0.703" transform="translate(7.09 7.319)" fill="#5c5c5c"/>
      <path id="Tracé_2063" data-name="Tracé 2063" d="M255.534,254.6a.469.469,0,0,0,.469-.469v-3.845a1.878,1.878,0,0,0-1.876-1.876h-.564v-1.654a2.814,2.814,0,0,0-5.627,0v1.654h-.562a1.878,1.878,0,0,0-1.876,1.876v3.845A1.878,1.878,0,0,0,247.376,256h6.752A1.878,1.878,0,0,0,256,254.128a.469.469,0,0,0-.938,0,.939.939,0,0,1-.938.938h-6.752a.939.939,0,0,1-.938-.938v-3.845a.939.939,0,0,1,.938-.938h6.752a.939.939,0,0,1,.938.938v3.845A.469.469,0,0,0,255.534,254.6Zm-2.908-6.189h-3.751v-1.654a1.877,1.877,0,0,1,3.751,0Z" transform="translate(-245.5 -244)" fill="#5c5c5c"/>
      <circle id="Ellipse_2" data-name="Ellipse 2" cx="0.703" cy="0.703" r="0.703" transform="translate(3.723 7.319)" fill="#5c5c5c"/>
      <circle id="Ellipse_3" data-name="Ellipse 3" cx="0.703" cy="0.703" r="0.703" transform="translate(2.051 7.319)" fill="#5c5c5c"/>
      <circle id="Ellipse_4" data-name="Ellipse 4" cx="0.703" cy="0.703" r="0.703" transform="translate(5.395 7.319)" fill="#5c5c5c"/>
    </g>
  </g>
</svg>
