<svg xmlns="http://www.w3.org/2000/svg" width="20.294" height="24.096" viewBox="0 0 20.294 24.096">
  <g id="Groupe_415" data-name="Groupe 415" transform="translate(-76.483 -13.07)">
    <path id="Tracé_398" data-name="Tracé 398" d="M90.158,35.983h.3c1.615,0,3.23,0,4.845.005a1.519,1.519,0,0,1,.486,2.96,1.957,1.957,0,0,1-.592.08c-1.389.008-2.778.006-4.167.008-.075,0-.151,0-.226,0-.276.017-.452.182-.442.412a.4.4,0,0,0,.448.375q1.808.025,3.615.041a1.526,1.526,0,1,1,.007,3.051c-1.054.008-2.109.005-3.163,0A.6.6,0,0,1,90.6,42.5a.57.57,0,0,1,.613-.715c.46-.011.921,0,1.381,0,.594,0,1.188,0,1.783,0,.285,0,.465-.147.473-.376s-.176-.406-.47-.409c-1.188-.013-2.377-.016-3.565-.029A1.554,1.554,0,0,1,89.3,39.935,1.524,1.524,0,0,1,90.715,37.9c.519-.014,1.038,0,1.556,0q1.431,0,2.862,0a1.1,1.1,0,0,0,.248-.02.361.361,0,0,0,.306-.4.375.375,0,0,0-.348-.367,1.3,1.3,0,0,0-.225-.005l-4.9,0A1.09,1.09,0,0,1,89,35.884c0-.059,0-.118,0-.176a1.413,1.413,0,0,0-.653-1.324,6.764,6.764,0,0,1-2.329-3.106,6.863,6.863,0,1,1,11.829,1.912,11.3,11.3,0,0,1-1.27,1.241c-.34.3-.689.284-.9.013-.235-.3-.156-.622.229-.917a5.73,5.73,0,0,0-2.836-10.284,5.65,5.65,0,0,0-6.175,4.366A5.471,5.471,0,0,0,88.914,33.4a2.77,2.77,0,0,1,1.161,1.631C90.129,35.334,90.13,35.646,90.158,35.983Z" transform="translate(-5.828 -5.757)" fill="#2f76bb"/>
    <path id="Tracé_399" data-name="Tracé 399" d="M126.542,40.82c-.275,0-.551,0-.826,0a.487.487,0,0,1-.539-.471.481.481,0,0,1,.521-.462c.575-.01,1.151-.012,1.727,0a.465.465,0,0,1,.509.469c0,.278-.207.458-.541.464C127.109,40.824,126.826,40.82,126.542,40.82Z" transform="translate(-31.158 -17.153)" fill="#2f76bb"/>
    <path id="Tracé_400" data-name="Tracé 400" d="M104.239,14.453c0,.276.006.552,0,.827a.467.467,0,0,1-.448.506.45.45,0,0,1-.48-.469q-.024-.889,0-1.779a.447.447,0,0,1,.48-.468.464.464,0,0,1,.447.505C104.245,13.868,104.239,14.16,104.239,14.453Z" transform="translate(-17.158 0)" fill="#2f76bb"/>
    <path id="Tracé_401" data-name="Tracé 401" d="M77.828,40.819c-.267,0-.534,0-.8,0-.335-.006-.541-.183-.544-.462a.465.465,0,0,1,.507-.471q.852-.018,1.7,0a.465.465,0,0,1,.506.472.473.473,0,0,1-.52.46C78.4,40.825,78.113,40.819,77.828,40.819Z" transform="translate(0 -17.153)" fill="#2f76bb"/>
    <path id="Tracé_402" data-name="Tracé 402" d="M120.625,20.717c.131.108.323.19.368.322a.631.631,0,0,1-.069.5,6.06,6.06,0,0,1-.632.675c-.2.2-.39.413-.6.609a.465.465,0,1,1-.669-.644q.6-.637,1.226-1.254A1.84,1.84,0,0,1,120.625,20.717Z" transform="translate(-27.123 -4.893)" fill="#2f76bb"/>
    <path id="Tracé_403" data-name="Tracé 403" d="M86.562,22.54c0,.434-.372.656-.677.485a.908.908,0,0,1-.194-.156c-.375-.381-.749-.762-1.119-1.148a.472.472,0,1,1,.66-.656c.382.385.764.771,1.135,1.167A1.589,1.589,0,0,1,86.562,22.54Z" transform="translate(-5.053 -4.99)" fill="#2f76bb"/>
  </g>
</svg>
