<svg id="Groupe_422" data-name="Groupe 422" xmlns="http://www.w3.org/2000/svg" width="11.361" height="11.361" viewBox="0 0 11.361 11.361">
  <path id="Tracé_2145" data-name="Tracé 2145" d="M77.4,219.224a2.953,2.953,0,1,0-2.735-2.945A2.849,2.849,0,0,0,77.4,219.224Zm0-5.049a2.11,2.11,0,1,1-1.954,2.1A2.035,2.035,0,0,1,77.4,214.175Z" transform="translate(-71.721 -213.333)" fill="#5c5c5c"/>
  <path id="Tracé_2146" data-name="Tracé 2146" d="M10.042,385.2A9.475,9.475,0,0,0,5.68,384a9.475,9.475,0,0,0-4.362,1.2A2.539,2.539,0,0,0,0,387.454v.385a1.187,1.187,0,0,0,1.159,1.21H10.2a1.187,1.187,0,0,0,1.159-1.21v-.385A2.539,2.539,0,0,0,10.042,385.2Zm.507,2.635a.359.359,0,0,1-.348.368H1.159a.359.359,0,0,1-.348-.368v-.385a1.7,1.7,0,0,1,.881-1.5,8.686,8.686,0,0,1,3.988-1.11,8.686,8.686,0,0,1,3.988,1.11,1.7,1.7,0,0,1,.881,1.5Z" transform="translate(0 -377.688)" fill="#5c5c5c"/>
</svg>
