<svg xmlns="http://www.w3.org/2000/svg" xmlns:xlink="http://www.w3.org/1999/xlink" width="139.895" height="43.878" viewBox="0 0 139.895 43.878">
  <defs>
    <linearGradient id="linear-gradient" x1="-0.568" y1="0.649" x2="1.469" y2="0.656" gradientUnits="objectBoundingBox">
      <stop offset="0" stop-color="#61bca6"/>
      <stop offset="1" stop-color="#2f76bb"/>
    </linearGradient>
  </defs>
  <g id="Groupe_9900" data-name="Groupe 9900" transform="translate(-118 -95.122)">
    <text id="Matchy" transform="translate(157.895 123.122)" fill="#2f76bb" font-size="28" font-family="Quicksand-Bold, Quicksand" font-weight="700"><tspan x="0" y="0">Matchy</tspan></text>
    <circle id="Ellipse_25" data-name="Ellipse 25" cx="5.008" cy="5.008" r="5.008" transform="translate(130.708 95.702)" fill="#2f76bb"/>
    <path id="Tracé_2153" data-name="Tracé 2153" d="M884.55,782.708v28.935a3.209,3.209,0,0,1-.519,1.82,1.545,1.545,0,0,1-1.249.754H860.412a4.007,4.007,0,0,0-3.276,1.7l-3.894,5.538a2.671,2.671,0,0,1-2.2,1.143,2.182,2.182,0,0,1-2.18-2.18v-7.971a1.2,1.2,0,0,1,.023-.254,2.423,2.423,0,0,1-.023-.359V782.708a1.813,1.813,0,0,1,.489-1.155,1.724,1.724,0,0,1,1.278-.542,1.77,1.77,0,0,1,1.22.483l13.728,13.033a1.638,1.638,0,0,0,2.257,0l13.727-13.033a1.719,1.719,0,0,1,.8-.43,1.654,1.654,0,0,1,.418-.053A1.76,1.76,0,0,1,884.55,782.708Z" transform="translate(-730.864 -683.6)" fill="url(#linear-gradient)"/>
  </g>
</svg>
