<svg xmlns="http://www.w3.org/2000/svg" width="31.39" height="31.39" viewBox="0 0 31.39 31.39">
  <g id="Groupe_367" data-name="Groupe 367" transform="translate(-250.478 -527.305)">
    <path id="Tracé_378" data-name="Tracé 378" d="M27.918,5.722a15.695,15.695,0,1,0,0,22.2,15.694,15.694,0,0,0,0-22.2Z" transform="translate(249.353 526.18)" fill="#f8b735"/>
    <path id="Icon_awesome-star" data-name="Icon awesome-star" d="M8.019.49,6.22,4.136,2.2,4.723a.882.882,0,0,0-.488,1.5L4.62,9.064l-.689,4.007A.881.881,0,0,0,5.209,14l3.6-1.892L12.409,14a.882.882,0,0,0,1.278-.928L13,9.064,15.91,6.227a.882.882,0,0,0-.488-1.5L11.4,4.136,9.6.49a.882.882,0,0,0-1.581,0Z" transform="translate(257.364 535.949)" fill="#fff"/>
  </g>
</svg>
